<svg width="183.87" height="55.28" viewBox="0 0 183.87 55.28" fill="none" xmlns="http://www.w3.org/2000/svg" ><path d="M75.48,22.3c0,.48-.39,.88-.88,.88s-.88-.39-.88-.88v-1.6c-.94,1.61-2.65,2.6-4.51,2.62-3.18-.06-5.71-2.69-5.65-5.87,0-.08,0-.16,.01-.25v-.05c-.19-3.19,2.24-5.93,5.44-6.13,.07,0,.13,0,.2,0,1.84,0,3.55,.95,4.52,2.51V7.19c-.02-.47,.35-.87,.83-.89,.01,0,.03,0,.04,0,.48,0,.88,.38,.89,.86,0,0,0,.02,0,.03v15.11Zm-10.11-5.16v.05c-.17,2.35,1.6,4.39,3.95,4.55,.07,0,.14,0,.21,0,2.43-.08,4.34-2.11,4.26-4.54v-.07c.09-2.42-1.8-4.45-4.22-4.54h-.04c-2.3,0-4.17,1.85-4.17,4.15,0,.13,0,.26,.02,.39m18.05,6.21c-3.24,.02-5.88-2.6-5.89-5.83,0-.1,0-.2,0-.3v-.05c-.18-3.21,2.28-5.95,5.49-6.13,.06,0,.11,0,.17,0,3.49,0,5.48,2.85,5.48,5.98,0,.45-.36,.82-.82,.82h-8.54c.07,2.24,1.91,4.01,4.15,3.99,1.27,0,2.49-.48,3.4-1.37,.31-.29,.79-.27,1.07,.04,.13,.14,.2,.32,.2,.51,0,.22-.1,.43-.27,.58-1.17,1.18-2.78,1.83-4.45,1.78m3.49-6.82c-.18-2.14-1.41-4.02-3.76-4.02-2.13,.12-3.81,1.88-3.83,4.02h7.6Zm3.73-4.47c0-.48,.38-.88,.87-.89,.48,0,.88,.38,.89,.86,0,.01,0,.02,0,.03v1.28c.81-1.46,2.37-2.35,4.04-2.3,2.85,0,4.52,1.92,4.52,4.72v6.55c0,.49-.39,.88-.88,.88s-.88-.39-.88-.88v-6.12c0-2.19-1.19-3.56-3.26-3.56-1.92-.04-3.5,1.48-3.54,3.4,0,.1,0,.2,0,.3v5.98c.02,.47-.35,.87-.83,.89-.01,0-.03,0-.04,0-.48,0-.88-.38-.89-.86,0,0,0-.02,0-.03V12.05Zm13.54,7.9v-7.12h-.96c-.42-.01-.76-.35-.78-.78,0-.43,.35-.77,.78-.78h.96v-2.78c-.01-.48,.37-.88,.85-.89h.01c.49,0,.88,.4,.89,.89v2.78h3.06c.43,0,.78,.35,.8,.78,0,.43-.36,.78-.8,.78h-3.06v6.89c-.13,.95,.54,1.83,1.49,1.96,.16,.02,.33,.02,.49,0,.36-.01,.72-.07,1.07-.16,.41,0,.75,.34,.75,.75,0,.31-.21,.59-.5,.68-.55,.22-1.14,.33-1.73,.32-1.65,.19-3.14-.99-3.33-2.63-.03-.23-.03-.46,0-.7m6.58-.3v-.04c0-2.49,2.05-3.81,5.04-3.81,1.23-.01,2.45,.16,3.63,.5v-.4c0-2.12-1.3-3.22-3.51-3.22-1.05,0-2.09,.22-3.05,.66-.1,.04-.21,.07-.32,.07-.42,0-.76-.33-.78-.75,0-.32,.19-.6,.48-.73,1.21-.54,2.53-.81,3.86-.8,1.39-.1,2.77,.37,3.81,1.3,.86,.94,1.29,2.18,1.21,3.45v6.46c.02,.46-.34,.85-.8,.87-.01,0-.03,0-.04,0-.44,.02-.82-.32-.84-.77,0-.02,0-.04,0-.06v-1.07c-1.01,1.33-2.6,2.08-4.27,2.03-2.19,0-4.4-1.26-4.4-3.67m8.69-.91v-1.14c-1.13-.33-2.29-.5-3.47-.5-2.21,0-3.44,.96-3.44,2.44v.04c0,1.48,1.37,2.35,2.97,2.35,2.17,0,3.95-1.32,3.95-3.2m4.43-11.54c0-.48,.39-.88,.88-.88s.88,.39,.88,.88v15.11c.02,.47-.35,.87-.83,.89-.01,0-.03,0-.04,0-.48,0-.88-.38-.89-.86,0,0,0-.02,0-.03V7.19ZM63.8,29.1c.19-1.07,1.22-1.78,2.29-1.59,.81,.15,1.44,.78,1.59,1.59v.04c-.18,1.07-1.19,1.79-2.27,1.61-.83-.14-1.48-.79-1.61-1.61v-.04Zm.2,4.52c-.02-.96,.73-1.75,1.69-1.78,.96-.02,1.75,.73,1.78,1.69,0,.03,0,.06,0,.09v9.04c-.02,.96-.82,1.71-1.78,1.69-.92-.02-1.67-.77-1.69-1.69v-9.04Zm5.59,0c-.02-.96,.73-1.75,1.69-1.78,.96-.02,1.75,.73,1.78,1.69,0,.03,0,.06,0,.09v.14c.79-1.21,2.14-1.94,3.58-1.96,2.62,0,4.15,1.73,4.15,4.54v6.32c-.02,.96-.82,1.71-1.78,1.69-.92-.02-1.67-.77-1.69-1.69v-5.23c0-1.64-.78-2.49-2.1-2.49s-2.17,.84-2.17,2.49v5.23c-.02,.96-.82,1.71-1.78,1.69-.92-.02-1.67-.77-1.69-1.69v-9.04Zm13.65,7.16v-5.8h-.12c-.82,0-1.48-.66-1.48-1.48s.66-1.48,1.48-1.48h.12v-1.53c-.02-.96,.73-1.75,1.69-1.78,.96-.02,1.75,.73,1.78,1.69,0,.03,0,.06,0,.09v1.53h1.53c.82,0,1.48,.66,1.48,1.48s-.66,1.48-1.48,1.48h-1.53v5.23c0,.8,.35,1.19,1.12,1.19,.12,0,.35-.02,.41-.02,.79,0,1.43,.65,1.44,1.44,0,.57-.36,1.09-.89,1.3-.63,.25-1.31,.36-1.99,.35-2.12,0-3.56-.84-3.56-3.67m13.21,3.74c-3.38,.15-6.24-2.46-6.39-5.84,0-.16,0-.32,0-.48v-.05c-.15-3.36,2.45-6.21,5.81-6.36,.08,0,.16,0,.24,0,3.19-.06,5.83,2.48,5.89,5.67,0,.07,0,.14,0,.21,.05,.87-.62,1.62-1.49,1.66-.04,0-.08,0-.13,0h-6.87c.22,1.45,1.53,2.5,2.99,2.4,.89,0,1.76-.28,2.46-.82,.24-.19,.54-.29,.84-.28,.73-.01,1.34,.57,1.35,1.31,0,.02,0,.04,0,.07,0,.39-.17,.77-.46,1.03-1.19,1-2.7,1.52-4.24,1.48m2.23-7.35c-.01-1.42-1.15-2.58-2.58-2.6-1.43,.04-2.58,1.17-2.65,2.6h5.23Zm4.98-7.98c-.02-.96,.73-1.75,1.69-1.78,.96-.02,1.75,.73,1.78,1.69,0,.03,0,.06,0,.09v13.46c-.02,.96-.82,1.71-1.78,1.69-.92-.02-1.67-.77-1.69-1.69v-13.46Zm5.75,0c-.02-.96,.73-1.75,1.69-1.78,.96-.02,1.75,.73,1.78,1.69,0,.03,0,.06,0,.09v13.46c-.02,.96-.82,1.71-1.78,1.69-.92-.02-1.67-.77-1.69-1.69v-13.46Zm5.55-.09c.19-1.07,1.22-1.78,2.29-1.59,.81,.15,1.44,.78,1.59,1.59v.04c-.18,1.07-1.19,1.79-2.27,1.61-.83-.14-1.48-.79-1.61-1.61v-.04Zm.2,4.52c-.02-.96,.73-1.75,1.69-1.78,.96-.02,1.75,.73,1.78,1.69,0,.03,0,.06,0,.09v9.04c-.02,.96-.82,1.71-1.78,1.69-.92-.02-1.67-.77-1.69-1.69v-9.04Zm6.6,13.48c-.75-.23-1.16-1.03-.93-1.77,.19-.59,.74-1,1.36-.99,.2,0,.39,.04,.58,.12,1.06,.49,2.21,.74,3.38,.73,2.37,0,3.49-1.14,3.49-3.33v-.59c-.92,1.28-2.42,2.02-3.99,1.98-2.97,.04-5.4-2.33-5.44-5.29,0-.14,0-.27,0-.41v-.05c-.18-2.97,2.08-5.52,5.05-5.69,.13,0,.25-.01,.38,0,1.53-.03,2.98,.64,3.95,1.83v-.02c0-.96,.79-1.73,1.75-1.72,.96,0,1.73,.79,1.72,1.75h0v7.87c.15,1.75-.41,3.48-1.55,4.82-1.14,1.14-2.9,1.64-5.27,1.64-1.53,.01-3.05-.27-4.47-.84m7.87-9.56v-.05c-.08-1.64-1.48-2.91-3.12-2.83-1.53,.07-2.76,1.3-2.83,2.83v.05c-.02,1.54,1.21,2.81,2.75,2.83,.07,0,.14,0,.21,0,1.56,.09,2.9-1.09,2.99-2.65,0-.06,0-.12,0-.18m11.19,6.98c-3.38,.15-6.24-2.46-6.39-5.84,0-.16,0-.32,0-.48v-.05c-.15-3.36,2.45-6.21,5.81-6.36,.08,0,.16,0,.24,0,3.19-.06,5.83,2.48,5.89,5.67,0,.07,0,.14,0,.21,.05,.87-.62,1.62-1.49,1.66-.04,0-.08,0-.13,0h-6.87c.22,1.45,1.53,2.5,2.99,2.4,.89,0,1.76-.28,2.46-.82,.24-.19,.54-.29,.84-.28,.73-.01,1.34,.57,1.35,1.31,0,.02,0,.04,0,.07,0,.39-.17,.77-.46,1.03-1.19,1-2.7,1.52-4.24,1.48m2.24-7.35c-.01-1.42-1.16-2.58-2.58-2.6-1.43,.04-2.58,1.17-2.65,2.6h5.23Zm4.82-3.56c-.02-.96,.73-1.75,1.69-1.78,.96-.02,1.75,.73,1.78,1.69,0,.03,0,.06,0,.09v.14c.79-1.21,2.14-1.95,3.58-1.96,2.62,0,4.15,1.73,4.15,4.54v6.32c-.02,.96-.82,1.71-1.78,1.69-.92-.02-1.67-.77-1.69-1.69v-5.23c0-1.64-.78-2.49-2.1-2.49s-2.17,.84-2.17,2.49v5.23c-.02,.96-.82,1.71-1.78,1.69-.92-.02-1.67-.77-1.69-1.69v-9.04Zm12.49,4.59v-.05c-.05-3.47,2.72-6.32,6.19-6.37,.07,0,.15,0,.22,0,1.51-.08,3,.41,4.18,1.37,.35,.29,.55,.73,.55,1.19,0,.86-.71,1.56-1.57,1.55h0c-.36,0-.72-.12-1-.35-.61-.51-1.38-.78-2.17-.78-1.72,.08-3.05,1.55-2.97,3.27v.1c-.13,1.73,1.16,3.23,2.88,3.37,.07,0,.15,0,.22,0,.84,0,1.65-.3,2.28-.84,.27-.2,.6-.31,.94-.32,.81,0,1.47,.67,1.46,1.49,0,.42-.19,.82-.5,1.09-1.18,1.08-2.74,1.65-4.33,1.58-3.45,.07-6.3-2.67-6.37-6.12,0-.07,0-.13,0-.2m17.94,6.32c-3.38,.15-6.23-2.46-6.39-5.84,0-.16,0-.32,0-.48v-.05c-.15-3.36,2.45-6.21,5.81-6.36,.08,0,.16,0,.24,0,3.19-.06,5.83,2.48,5.89,5.67,0,.07,0,.14,0,.21,.05,.87-.62,1.62-1.49,1.66-.04,0-.08,0-.13,0h-6.87c.22,1.45,1.53,2.5,2.99,2.4,.89,0,1.76-.28,2.46-.82,.24-.19,.54-.29,.85-.28,.73-.01,1.34,.57,1.35,1.3,0,.02,0,.04,0,.07,0,.39-.17,.77-.46,1.03-1.19,1-2.69,1.52-4.24,1.48m2.24-7.35c-.01-1.42-1.16-2.58-2.58-2.6-1.43,.04-2.58,1.17-2.65,2.6h5.23ZM25.82,29.63c0,.06,0,.12,.01,.19,.08,2.08-1.54,3.83-3.62,3.92-.06,0-.11,0-.17-.01-2.09-.18-3.63-2.01-3.46-4.09v-.06c0-.07-.01-.14-.01-.21-.07-2.08,1.56-3.83,3.64-3.9,.06,0,.13,0,.19,.01,2.07,.19,3.6,2.02,3.42,4.09v.06Zm29.46-1.99c0,15.26-12.37,27.64-27.64,27.64S0,42.9,0,27.64,12.37,0,27.64,0s27.64,12.37,27.64,27.64Zm-25.3,7.46V18.74c-.03-1.13-.93-2.03-2.06-2.06-1.16-.03-2.13,.89-2.16,2.06v5.38c-1.1-1.43-2.82-2.25-4.63-2.22-3.52,0-6.76,2.72-6.76,7.68v.06c0,4.96,3.3,7.68,6.76,7.68,1.85,.03,3.6-.87,4.63-2.41v.19c.03,1.13,.93,2.03,2.06,2.06,1.16,.03,2.13-.89,2.16-2.06Zm6.1-10.98c-.03-1.13-.93-2.03-2.06-2.06-1.16-.03-2.13,.89-2.16,2.06v10.98c.03,1.13,.93,2.03,2.06,2.06,1.16,.03,2.13-.89,2.16-2.06v-10.98Zm.18-5.46c0-1.11-.91-2.02-2.02-2.02h-.5c-1.11,0-2.02,.91-2.02,2.02h0c0,1.12,.91,2.03,2.02,2.03h.5c1.11,0,2.02-.91,2.02-2.02h0Z" fill="#002955"/></svg>